<svg xmlns="http://www.w3.org/2000/svg" xmlns:xlink="http://www.w3.org/1999/xlink" id="Layer_1" width="239.763" height="204.988" x="0" y="0" enable-background="new -109.477 -3.618 239.763 204.988" version="1.1" viewBox="-109.477 -3.618 239.763 204.988" xml:space="preserve"><g><rect width="66.001" height="34.333" x="-59.44" y="-.793" stroke="#000" stroke-miterlimit="10" stroke-width=".75"/><rect width="66" height="34.333" x="-60.877" y="-3.243" fill="#FFF" stroke="#000" stroke-miterlimit="10" stroke-width=".75"/><text font-family="'ProductusOSGiBookc'" font-size="7.98" transform="matrix(0.9504 0 0 1 -58.7048 6.7566)">&lt;&lt;service&gt;&gt;</text><text font-family="'ProductusSemibold'" font-size="7.98" transform="matrix(1 0 0 1 -58.7083 16.3328)">Service Component</text><text font-family="'ProductusSemibold'" font-size="7.98" transform="matrix(1 0 0 1 -58.7083 25.9089)">Runtime</text><polyline points="6.561 26.46 6.561 19.38 -7.6 33.54 6.561 33.54"/></g><g><rect width="59.408" height="30.854" x="-107.665" y="59.408" stroke="#000" stroke-miterlimit="10" stroke-width=".75"/><rect width="59.179" height="31.322" x="-109.102" y="56.958" fill="#FFF" stroke="#000" stroke-miterlimit="10" stroke-width=".75"/><text font-family="'ProductusSemibold'" font-size="7.98" transform="matrix(1 0 0 1 -106.9329 66.9578)">Component</text><text font-family="'ProductusSemibold'" font-size="7.98" transform="matrix(1 0 0 1 -106.9329 76.5339)">Description DTO</text></g><g><rect width="65.051" height="30.854" x="-10.64" y="58.417" stroke="#000" stroke-miterlimit="10" stroke-width=".75"/><rect width="64.487" height="31.316" x="-12.077" y="55.969" fill="#FFF" stroke="#000" stroke-miterlimit="10" stroke-width=".75"/><text font-family="'ProductusSemibold'" font-size="7.98" transform="matrix(1 0 0 1 -9.908 65.9675)">Component</text><text font-family="'ProductusSemibold'" font-size="7.98" transform="matrix(1 0 0 1 -9.908 75.5437)">Configuration DTO</text></g><g><rect width="59.403" height="30.854" x="-106.947" y="123.33" stroke="#000" stroke-miterlimit="10" stroke-width=".75"/><rect width="59.178" height="31.322" x="-108.384" y="120.88" fill="#FFF" stroke="#000" stroke-miterlimit="10" stroke-width=".75"/><text font-family="'ProductusSemibold'" font-size="7.98" transform="matrix(1 0 0 1 -106.2166 130.8796)">Reference DTO</text></g><g><rect width="65.051" height="30.854" x="-11.64" y="115.339" stroke="#000" stroke-miterlimit="10" stroke-width=".75"/><rect width="64.487" height="31.316" x="-13.077" y="112.89" fill="#FFF" stroke="#000" stroke-miterlimit="10" stroke-width=".75"/><text font-family="'ProductusSemibold'" font-size="7.98" transform="matrix(1 0 0 1 -10.908 122.8894)">Satisfied</text><text font-family="'ProductusSemibold'" font-size="7.98" transform="matrix(1 0 0 1 -10.908 132.4656)">Reference DTO</text></g><g><rect width="65.051" height="30.853" x="26.235" y="162.808" stroke="#000" stroke-miterlimit="10" stroke-width=".75"/><rect width="64.487" height="31.321" x="24.798" y="160.359" fill="#FFF" stroke="#000" stroke-miterlimit="10" stroke-width=".75"/><text font-family="'ProductusSemibold'" font-size="7.98" transform="matrix(1 0 0 1 26.967 170.3582)">Service Reference</text><text font-family="'ProductusSemibold'" font-size="7.98" transform="matrix(1 0 0 1 26.967 179.9343)">DTO</text></g><line x1="-48.257" x2="-78.794" y1="31.09" y2="56.97" fill="none" stroke="#000" stroke-miterlimit="10" stroke-width=".75"/><line x1="-12.077" x2="17.076" y1="31.09" y2="55.969" fill="none" stroke="#000" stroke-miterlimit="10" stroke-width=".75"/><line x1="-79.513" x2="-79.513" y1="90.262" y2="120.88" fill="none" stroke="#000" stroke-miterlimit="10" stroke-width=".75"/><line x1="20.166" x2="20.166" y1="89.27" y2="112.89" fill="none" stroke="#000" stroke-miterlimit="10" stroke-width=".75"/><line x1="46.041" x2="46.041" y1="146.193" y2="160.291" fill="none" stroke="#000" stroke-miterlimit="10" stroke-width=".75"/><text font-family="'ProductusBook'" font-size="7.98" transform="matrix(1 0 0 1 -89.4998 54.4187)">0..*</text><text font-family="'ProductusBook'" font-size="7.98" transform="matrix(1 0 0 1 19.1667 54.4187)">0..*</text><text font-family="'ProductusBook'" font-size="7.98" transform="matrix(1 0 0 1 -77.9617 118.4187)">0..*</text><text font-family="'ProductusBook'" font-size="7.98" transform="matrix(1 0 0 1 6.2961 111.4187)">0..*</text><text font-family="'ProductusBook'" font-size="7.98" transform="matrix(1 0 0 1 31.7585 158.3396)">0..*</text><text font-family="'ProductusBook'" font-size="7.98" transform="matrix(1 0 0 1 -46.1873 126.3162)">1</text><text font-family="'ProductusBook'" font-size="7.98" transform="matrix(1 0 0 1 -46.1873 67.6511)">1</text><g><rect width="65.051" height="30.854" x="64.86" y="115.608" stroke="#000" stroke-miterlimit="10" stroke-width=".75"/><rect width="64.487" height="31.318" x="63.423" y="113.16" fill="#FFF" stroke="#000" stroke-miterlimit="10" stroke-width=".75"/><text font-family="'ProductusSemibold'" font-size="7.98" transform="matrix(1 0 0 1 65.592 123.1589)">Unsatisfied</text><text font-family="'ProductusSemibold'" font-size="7.98" transform="matrix(1 0 0 1 65.592 132.7351)">Reference DTO</text></g><text font-family="'ProductusBook'" font-size="7.98" transform="matrix(1 0 0 1 99.7961 111.6882)">0..*</text><line x1="25.236" x2="95.667" y1="89.271" y2="113.159" fill="none" stroke="#000" stroke-miterlimit="10" stroke-width=".75"/><text font-family="'ProductusBook'" font-size="7.98" transform="matrix(1 0 0 1 -57.5408 159.9324)">1</text><g><g><line x1="-13.519" x2="-16.519" y1="129.628" y2="129.628" fill="none" stroke="#000" stroke-miterlimit="10" stroke-width=".75"/><line x1="-18.618" x2="-42.751" y1="129.628" y2="129.628" fill="none" stroke="#000" stroke-dasharray="6.296 2.099" stroke-miterlimit="10" stroke-width=".75"/><line x1="-43.801" x2="-46.801" y1="129.628" y2="129.628" fill="none" stroke="#000" stroke-miterlimit="10" stroke-width=".75"/></g></g><line x1="-48.257" x2="-12.077" y1="72.619" y2="72.619" fill="none" stroke="#000" stroke-miterlimit="10" stroke-width=".75"/><line x1="68.903" x2="68.903" y1="146.193" y2="159.932" fill="none" stroke="#000" stroke-miterlimit="10" stroke-width=".75"/><text font-family="'ProductusBook'" font-size="7.98" transform="matrix(1 0 0 1 71.425 158.3396)">0..*</text><line x1="109.402" x2="109.569" y1="146.462" y2="200.995" fill="none" stroke="#000" stroke-dasharray="6 2" stroke-miterlimit="10" stroke-width=".75"/><line x1="109.569" x2="-60.431" y1="200.995" y2="200.995" fill="none" stroke="#000" stroke-dasharray="6 2" stroke-miterlimit="10" stroke-width=".75"/><line x1="-60.431" x2="-60.431" y1="200.995" y2="154.184" fill="none" stroke="#000" stroke-dasharray="6 2" stroke-miterlimit="10" stroke-width=".75"/></svg>