<svg xmlns="http://www.w3.org/2000/svg" xmlns:xlink="http://www.w3.org/1999/xlink" id="Layer_1" width="333.54" height="156.42" x="0" y="0" enable-background="new 92.16 0 333.54 156.42" version="1.1" viewBox="92.16 0 333.54 156.42" xml:space="preserve"><rect width="54.3" height="26.581" x="94.74" y="65.819"/><rect width="54.539" height=".48" x="94.74" y="65.579"/><rect width=".479" height="26.821" x="148.8" y="65.819"/><rect width="54.54" height=".48" x="94.5" y="92.159"/><rect width=".479" height="26.82" x="94.5" y="65.579"/><rect width="54.301" height="26.581" x="92.4" y="64.02" fill="#FFF"/><rect width="54.54" height=".48" x="92.4" y="63.779"/><rect width=".479" height="26.82" x="146.46" y="64.02"/><rect width="54.54" height=".479" x="92.16" y="90.358"/><rect width=".479" height="26.82" x="92.16" y="63.779"/><text font-family="'ProductusOSGiBookc'" font-size="7.98" transform="matrix(0.9504 0 0 1 94.7415 71.1592)">&lt;&lt;dto&gt;&gt;</text><text font-family="'ProductusSemibold'" font-size="7.98" transform="matrix(1 0 0 1 94.7405 79.6201)">Resource DTO</text><rect width="57.833" height="26.58" x="215.392" y="16.199"/><rect width="58.089" height=".479" x="215.392" y="15.96"/><rect width=".512" height="26.82" x="272.969" y="16.199"/><rect width="58.089" height=".48" x="215.136" y="42.539"/><rect width=".511" height="26.819" x="215.136" y="15.96"/><rect width="57.897" height="26.58" x="212.835" y="14.399" fill="#FFF"/><rect width="58.154" height=".48" x="212.835" y="14.159"/><rect width=".512" height="26.82" x="270.477" y="14.399"/><rect width="58.153" height=".479" x="212.58" y="40.739"/><rect width=".511" height="26.82" x="212.58" y="14.159"/><text font-family="'ProductusOSGiBookc'" font-size="7.98" transform="matrix(0.9504 0 0 1 215.2214 21.54)">&lt;&lt;dto&gt;&gt;</text><text enable-background="new" transform="matrix(1 0 0 1 215.2205 30.0596)"><tspan x="0" y="0" font-family="'ProductusSemibold'" font-size="7.98">Requirement</tspan><tspan x="0" y="9.576" font-family="'ProductusSemibold'" font-size="7.98">DTO</tspan></text><rect width="54.3" height="26.58" x="215.22" y="115.438"/><rect width="54.54" height=".48" x="215.22" y="115.198"/><rect width=".48" height="26.818" x="269.28" y="115.438"/><rect width="54.54" height=".479" x="214.98" y="141.778"/><rect width=".479" height="26.82" x="214.98" y="115.198"/><rect width="54.36" height="26.58" x="212.82" y="113.64" fill="#FFF"/><rect width="54.602" height=".479" x="212.82" y="113.399"/><rect width=".479" height="26.82" x="266.94" y="113.64"/><rect width="54.602" height=".479" x="212.58" y="139.979"/><rect width=".479" height="26.818" x="212.58" y="113.399"/><text font-family="'ProductusOSGiBookc'" font-size="7.98" transform="matrix(0.9504 0 0 1 215.2214 120.7803)">&lt;&lt;dto&gt;&gt;</text><text font-family="'ProductusSemibold'" font-size="7.98" transform="matrix(1 0 0 1 215.2205 129.2412)">Capability DTO</text><rect width="54.3" height="26.581" x="215.22" y="65.819"/><rect width="54.54" height=".48" x="215.22" y="65.579"/><rect width=".48" height="26.821" x="269.28" y="65.819"/><rect width="54.54" height=".48" x="214.98" y="92.159"/><rect width=".479" height="26.82" x="214.98" y="65.579"/><rect width="54.36" height="26.581" x="212.82" y="64.02" fill="#FFF"/><rect width="54.602" height=".48" x="212.82" y="63.779"/><rect width=".479" height="26.82" x="266.94" y="64.02"/><rect width="54.602" height=".479" x="212.58" y="90.358"/><rect width=".479" height="26.82" x="212.58" y="63.779"/><text font-family="'ProductusOSGiBookc'" font-size="7.98" transform="matrix(0.9504 0 0 1 215.2214 71.1592)">&lt;&lt;dto&gt;&gt;</text><text font-family="'ProductusSemibold'" font-size="7.98" transform="matrix(1 0 0 1 215.2205 79.6201)">Wiring DTO</text><rect width=".479" height="21.721" x="240.959" y="42.539"/><rect width=".479" height="21.721" x="240.959" y="92.159"/><rect width="78.42" height=".479" x="134.64" y="28.38"/><rect width=".479" height="35.641" x="134.64" y="28.619"/><rect width="64.261" height=".479" x="148.8" y="78"/><rect width="78.42" height=".479" x="134.64" y="127.56"/><rect width=".479" height="35.641" x="134.64" y="92.159"/><text font-family="'ProductusBook'" font-size="7.98" transform="matrix(1 0 0 1 137.4597 61.6201)">1</text><text font-family="'ProductusBook'" font-size="7.98" transform="matrix(1 0 0 1 199.9207 25.8613)">0..n</text><text font-family="'ProductusBook'" font-size="7.98" transform="matrix(1 0 0 1 200.5212 134.54)">0..n</text><text font-family="'ProductusBook'" font-size="7.98" transform="matrix(1 0 0 1 137.4597 97.5596)">1</text><text font-family="'ProductusBook'" font-size="7.98" transform="matrix(1 0 0 1 356.4001 68.7607)">0..n</text><text font-family="'ProductusBook'" font-size="7.98" transform="matrix(1 0 0 1 228.8396 47.9404)">0..n</text><rect width="54.359" height="26.581" x="371.1" y="65.819"/><rect width="54.6" height=".48" x="371.1" y="65.579"/><rect width=".479" height="26.821" x="425.219" y="65.819"/><rect width="54.604" height=".48" x="370.86" y="92.159"/><rect width=".48" height="26.82" x="370.86" y="65.579"/><rect width="54.357" height="26.581" x="368.76" y="64.02" fill="#FFF"/><rect width="54.6" height=".48" x="368.76" y="63.779"/><rect width=".479" height="26.82" x="422.88" y="64.02"/><rect width="54.6" height=".479" x="368.52" y="90.358"/><rect width=".48" height="26.82" x="368.52" y="63.779"/><text font-family="'ProductusOSGiBookc'" font-size="7.98" transform="matrix(0.9504 0 0 1 371.1013 71.1592)">&lt;&lt;dto&gt;&gt;</text><text font-family="'ProductusSemibold'" font-size="7.98" transform="matrix(1 0 0 1 371.1003 79.6201)">Wire DTO</text><rect width="99.723" height=".48" x="269.28" y="70.859"/><rect width="57.184" height=".48" x="269.28" y="85.079"/><rect width=".479" height="35.88" x="382.68" y="28.38"/><rect width="109.952" height=".479" x="272.969" y="28.38"/><rect width=".479" height="35.88" x="382.68" y="92.159"/><rect width="113.643" height=".479" x="269.28" y="127.56"/><rect width=".479" height="64.26" x="411.059"/><rect width="304.979" height=".479" x="106.32"/><rect width=".479" height="64.021" x="106.32" y=".239"/><rect width=".479" height="64.261" x="411.059" y="92.159"/><rect width="304.979" height=".479" x="106.32" y="155.938"/><rect width=".479" height="64.021" x="106.32" y="92.159"/><text font-family="'ProductusBook'" font-size="7.98" transform="matrix(1 0 0 1 356.4001 82.9209)">0..n</text><rect width=".24" height=".48" x="368.76" y="85.079"/><rect width="99.48" height=".48" x="269.28" y="85.079"/><text font-family="'ProductusBook'" font-size="7.98" transform="matrix(1 0 0 1 141.5398 26.5205)">declares</text><text font-family="'ProductusBook'" font-size="7.98" transform="matrix(1 0 0 1 139.4392 134.54)">declares</text><text font-family="'ProductusBook'" font-size="7.98" transform="matrix(1 0 0 1 228.4998 111.2402)">0..n</text><text font-family="'ProductusBook'" font-size="7.98" transform="matrix(1 0 0 1 223.6199 153.8389)">provider for</text><text font-family="'ProductusBook'" font-size="7.98" transform="matrix(1 0 0 1 227.0408 7.6191)">requirer for</text><text font-family="'ProductusBook'" font-size="7.98" transform="matrix(1 0 0 1 108.7805 62.1592)">1</text><text font-family="'ProductusBook'" font-size="7.98" transform="matrix(1 0 0 1 108.7805 97.5596)">1</text><text font-family="'ProductusBook'" font-size="7.98" transform="matrix(1 0 0 1 275.8005 26.2197)">1</text><text font-family="'ProductusBook'" font-size="7.98" transform="matrix(1 0 0 1 273.4812 125.3994)">1</text><text font-family="'ProductusBook'" font-size="7.98" transform="matrix(1 0 0 1 290.8201 68.7607)">provided</text><text font-family="'ProductusBook'" font-size="7.98" transform="matrix(1 0 0 1 290.8201 92.0605)">required</text><text font-family="'ProductusBook'" font-size="7.98" transform="matrix(1 0 0 1 312.0613 26.2803)">requirer for</text><text font-family="'ProductusBook'" font-size="7.98" transform="matrix(1 0 0 1 312.0613 125.4609)">provider for</text><text font-family="'ProductusBook'" font-size="7.98" transform="matrix(1 0 0 1 152.7693 74.8799)">1</text></svg>